name ./resultDataOpenSim/trcMotMarkerGrf/sub10/grf-14-06.mot
datacolumns 19
datarows 20
range 0.97600000 1.05200000
endheader

                time	     ground_force_vx	     ground_force_vy	     ground_force_vz	     ground_force_px	     ground_force_py	     ground_force_pz	   l_ground_force_vx	   l_ground_force_vy	   l_ground_force_vz	   l_ground_force_px	   l_ground_force_py	   l_ground_force_pz	     ground_torque_x	     ground_torque_y	     ground_torque_z	   l_ground_torque_x	   l_ground_torque_y	   l_ground_torque_z	
          0.97600000	          0.00000000	          0.00000000	          0.00000000	          0.00000000	          0.00000000	          0.00000000	         99.36501860	        792.33631511	          5.99098274	          0.06774398	         -0.07500200	         -0.09908153	          0.00000000	          0.00000000	          0.00000000	          0.00000000	         -4.52706608	          0.00000000	
          0.98000000	          0.00000000	          0.00000000	          0.00000000	          0.00000000	          0.00000000	          0.00000000	        105.38705549	        798.35608993	          1.48090727	          0.06830522	         -0.07500180	         -0.09830119	          0.00000000	          0.00000000	          0.00000000	          0.00000000	         -4.74074895	          0.00000000	
          0.98400000	          0.00000000	          0.00000000	          0.00000000	          0.00000000	          0.00000000	          0.00000000	        111.80268048	        802.88980566	         -2.62003496	          0.06890570	         -0.07500100	         -0.09754530	          0.00000000	          0.00000000	          0.00000000	          0.00000000	         -4.92031240	          0.00000000	
          0.98800000	          0.00000000	          0.00000000	          0.00000000	          0.00000000	          0.00000000	          0.00000000	        118.76182095	        805.99135753	         -6.28828225	          0.06951118	         -0.07500100	         -0.09682824	          0.00000000	          0.00000000	          0.00000000	          0.00000000	         -5.05701438	          0.00000000	
          0.99200000	          0.00000000	          0.00000000	          0.00000000	          0.00000000	          0.00000000	          0.00000000	        126.24535618	        807.80430422	         -9.56062361	          0.07008841	         -0.07500100	         -0.09615886	          0.00000000	          0.00000000	          0.00000000	          0.00000000	         -5.14351796	          0.00000000	
          0.99600000	          0.00000000	          0.00000000	          0.00000000	          0.00000000	          0.00000000	          0.00000000	        134.08225893	        808.51528481	        -12.48626141	          0.07062205	         -0.07500100	         -0.09553859	          0.00000000	          0.00000000	          0.00000000	          0.00000000	         -5.17426970	          0.00000000	
          1.00000000	          0.00000000	          0.00000000	          0.00000000	          0.00000000	          0.00000000	          0.00000000	        142.02219763	        808.25470682	        -15.08130537	          0.07112068	         -0.07500100	         -0.09496279	          0.00000000	          0.00000000	          0.00000000	          0.00000000	         -5.14581324	          0.00000000	
          1.00400000	          0.00000000	          0.00000000	          0.00000000	          0.00000000	          0.00000000	          0.00000000	        149.79845973	        807.02615479	        -17.32304737	          0.07160642	         -0.07500100	         -0.09443234	          0.00000000	          0.00000000	          0.00000000	          0.00000000	         -5.05719322	          0.00000000	
          1.00800000	          0.00000000	          0.00000000	          0.00000000	          0.00000000	          0.00000000	          0.00000000	        157.16333634	        804.76269180	        -19.17602656	          0.07210400	         -0.07500100	         -0.09393810	          0.00000000	          0.00000000	          0.00000000	          0.00000000	         -4.91037346	          0.00000000	
          1.01200000	          0.00000000	          0.00000000	          0.00000000	          0.00000000	          0.00000000	          0.00000000	        163.90942389	        801.43651657	        -20.62131469	          0.07262763	         -0.07500027	         -0.09346314	          0.00000000	          0.00000000	          0.00000000	          0.00000000	         -4.71043289	          0.00000000	
          1.01600000	          0.00000000	          0.00000000	          0.00000000	          0.00000000	          0.00000000	          0.00000000	        169.88403009	        797.07489515	        -21.67974897	          0.07319484	         -0.07500003	         -0.09298344	          0.00000000	          0.00000000	          0.00000000	          0.00000000	         -4.46534516	          0.00000000	
          1.02000000	          0.00000000	          0.00000000	          0.00000000	          0.00000000	          0.00000000	          0.00000000	        174.99823847	        791.66210504	        -22.41667180	          0.07379263	         -0.07500000	         -0.09248330	          0.00000000	          0.00000000	          0.00000000	          0.00000000	         -4.18529637	          0.00000000	
          1.02400000	          0.00000000	          0.00000000	          0.00000000	          0.00000000	          0.00000000	          0.00000000	        179.24260279	        785.05168516	        -22.91645108	          0.07438794	         -0.07500000	         -0.09197616	          0.00000000	          0.00000000	          0.00000000	          0.00000000	         -3.88166512	          0.00000000	
          1.02800000	          0.00000000	          0.00000000	          0.00000000	          0.00000000	          0.00000000	          0.00000000	        182.70169878	        776.99419455	        -23.24757285	          0.07495880	         -0.07500000	         -0.09149255	          0.00000000	          0.00000000	          0.00000000	          0.00000000	         -3.56591204	          0.00000000	
          1.03200000	          0.00000000	          0.00000000	          0.00000000	          0.00000000	          0.00000000	          0.00000000	        185.53029124	        767.21054697	        -23.45171234	          0.07548892	         -0.07500000	         -0.09105336	          0.00000000	          0.00000000	          0.00000000	          0.00000000	         -3.24863975	          0.00000000	
          1.03600000	          0.00000000	          0.00000000	          0.00000000	          0.00000000	          0.00000000	          0.00000000	        187.88538206	        755.40463695	        -23.56547632	          0.07594885	         -0.07499936	         -0.09067190	          0.00000000	          0.00000000	          0.00000000	          0.00000000	         -2.93902396	          0.00000000	
          1.04000000	          0.00000000	          0.00000000	          0.00000000	          0.00000000	          0.00000000	          0.00000000	        189.85318459	        741.24582013	        -23.64438523	          0.07632179	         -0.07499900	         -0.09036049	          0.00000000	          0.00000000	          0.00000000	          0.00000000	         -2.64469270	          0.00000000	
          1.04400000	          0.00000000	          0.00000000	          0.00000000	          0.00000000	          0.00000000	          0.00000000	        191.41046568	        724.39052459	        -23.75235365	          0.07663380	         -0.07499900	         -0.09012089	          0.00000000	          0.00000000	          0.00000000	          0.00000000	         -2.37189517	          0.00000000	
          1.04800000	          0.00000000	          0.00000000	          0.00000000	          0.00000000	          0.00000000	          0.00000000	        192.43296784	        704.54128608	        -23.92505152	          0.07693949	         -0.07499848	         -0.08993397	          0.00000000	          0.00000000	          0.00000000	          0.00000000	         -2.12558325	          0.00000000	
          1.05200000	          0.00000000	          0.00000000	          0.00000000	          0.00000000	          0.00000000	          0.00000000	        192.73451613	        681.51094164	        -24.14487800	          0.07729159	         -0.07499800	         -0.08976809	          0.00000000	          0.00000000	          0.00000000	          0.00000000	         -1.90909602	          0.00000000	
